<?xml version="1.0" encoding="UTF-8"?>
<svg xmlns="http://www.w3.org/2000/svg" width="340" height="520" viewBox="0 0 340 520">
  <rect width="340" height="520" rx="24" fill="#FEF7EE" stroke="#F86E04" stroke-width="6"/>
  <rect width="340" height="88" fill="#4C1D13"/>
  <circle cx="48" cy="44" r="22" fill="#FFFFFF"/>
  <text x="82" y="40" fill="#FEF7EE" font-family="Arial, sans-serif" font-size="22" font-weight="700">CafeSlodziak</text>
  <text x="82" y="60" fill="#D3A16A" font-family="Arial, sans-serif" font-size="11">Kawiarnia dla dzieci · Rzeszów</text>
  <text x="170" y="118" fill="#2F0E09" font-family="Arial, sans-serif" font-size="18" font-weight="700" text-anchor="middle">Zeskanuj i zobacz menu</text>
  <text x="170" y="140" fill="#666666" font-family="Arial, sans-serif" font-size="12" text-anchor="middle">Скануй — переглянь меню · Scan for menu</text>
  <rect x="50" y="158" width="240" height="240" rx="16" fill="#FFFFFF" stroke="#D3A16A" stroke-width="2" opacity="0.6"/>
  <g transform="translate(60, 168)"><path fill="#FEF7EE" d="M0 0h37v37H0z"/><path stroke="#2F0E09" d="M0 0.5h7m3 0h1m7 0h3m1 0h1m2 0h1m2 0h1m1 0h7M0 1.5h1m5 0h1m4 0h1m1 0h1m2 0h1m2 0h1m1 0h1m1 0h3m2 0h1m1 0h1m5 0h1M0 2.5h1m1 0h3m1 0h1m2 0h1m2 0h5m1 0h1m3 0h2m1 0h1m2 0h1m1 0h1m1 0h3m1 0h1M0 3.5h1m1 0h3m1 0h1m3 0h2m2 0h1m2 0h3m2 0h1m2 0h2m3 0h1m1 0h3m1 0h1M0 4.5h1m1 0h3m1 0h1m1 0h1m1 0h1m2 0h1m1 0h1m1 0h1m2 0h1m5 0h2m2 0h1m1 0h3m1 0h1M0 5.5h1m5 0h1m2 0h1m2 0h1m2 0h1m1 0h2m2 0h1m3 0h1m4 0h1m5 0h1M0 6.5h7m1 0h1m1 0h1m1 0h1m1 0h1m1 0h1m1 0h1m1 0h1m1 0h1m1 0h1m1 0h1m1 0h1m1 0h7M8 7.5h3m1 0h1m1 0h9m4 0h2M2 8.5h2m2 0h3m1 0h5m3 0h1m2 0h1m3 0h1m1 0h4m1 0h1M0 9.5h1m1 0h1m1 0h2m2 0h1m1 0h1m1 0h4m1 0h1m1 0h2m1 0h1m1 0h5m1 0h1m3 0h2M0 10.5h3m2 0h2m2 0h1m2 0h2m2 0h2m2 0h2m1 0h1m1 0h1m1 0h1m1 0h1m1 0h3M2 11.5h2m1 0h1m1 0h4m1 0h1m2 0h1m2 0h2m1 0h2m1 0h4m5 0h2m1 0h1M2 12.5h1m3 0h1m1 0h2m2 0h1m1 0h1m1 0h1m3 0h7m2 0h6m1 0h1M0 13.5h1m1 0h4m4 0h3m1 0h1m2 0h1m5 0h1m2 0h2m2 0h3m1 0h3M0 14.5h1m1 0h1m2 0h2m2 0h4m1 0h1m6 0h1m2 0h2m3 0h2m1 0h1m1 0h2M3 15.5h2m4 0h2m2 0h1m1 0h1m2 0h3m2 0h2m1 0h1m1 0h2M0 16.5h1m2 0h4m1 0h1m1 0h1m2 0h1m1 0h1m1 0h1m2 0h3m1 0h2m7 0h2M0 17.5h3m2 0h1m1 0h2m4 0h1m2 0h2m2 0h2m2 0h2m1 0h1m2 0h1m2 0h2m1 0h1M0 18.5h1m4 0h2m4 0h2m2 0h2m1 0h2m1 0h1m3 0h1m1 0h1m7 0h2M0 19.5h2m1 0h1m1 0h1m1 0h1m1 0h2m2 0h1m3 0h1m1 0h1m2 0h1m1 0h1m2 0h1m1 0h3m1 0h1M1 20.5h7m3 0h2m1 0h1m1 0h1m2 0h2m1 0h1m1 0h1m1 0h4m2 0h2m1 0h1M0 21.5h1m3 0h1m3 0h1m2 0h1m1 0h2m1 0h1m1 0h2m1 0h5m5 0h1m1 0h2M0 22.5h3m1 0h1m1 0h1m2 0h1m5 0h2m2 0h1m2 0h1m2 0h1m4 0h1m1 0h1m1 0h1M1 23.5h1m1 0h1m1 0h1m1 0h1m1 0h1m2 0h1m1 0h1m1 0h3m1 0h2m1 0h1m3 0h2m1 0h1m2 0h4M0 24.5h2m2 0h4m1 0h1m1 0h1m2 0h1m1 0h1m2 0h2m3 0h1m1 0h1m1 0h2m1 0h5M1 25.5h2m1 0h2m3 0h1m1 0h3m3 0h1m1 0h1m2 0h3m1 0h1m2 0h1m1 0h3m2 0h1M1 26.5h1m1 0h1m1 0h3m4 0h2m1 0h1m3 0h1m3 0h1m7 0h5M0 27.5h1m1 0h2m3 0h3m1 0h3m4 0h2m1 0h3m2 0h2m1 0h1m1 0h2m2 0h2M4 28.5h1m1 0h1m1 0h1m1 0h4m1 0h6m1 0h1m2 0h1m2 0h5m1 0h1m1 0h1M8 29.5h1m5 0h1m3 0h1m2 0h3m3 0h2m3 0h3m1 0h1M0 30.5h7m1 0h2m4 0h1m5 0h1m4 0h1m2 0h1m1 0h1m1 0h2m1 0h2M0 31.5h1m5 0h1m2 0h3m1 0h4m1 0h1m1 0h2m1 0h2m2 0h2m3 0h2M0 32.5h1m1 0h3m1 0h1m2 0h1m3 0h1m3 0h3m1 0h4m3 0h6M0 33.5h1m1 0h3m1 0h1m1 0h4m2 0h2m2 0h3m3 0h2m2 0h1m1 0h4M0 34.5h1m1 0h3m1 0h1m1 0h1m3 0h3m2 0h1m1 0h3m1 0h3m1 0h2m1 0h6M0 35.5h1m5 0h1m3 0h1m4 0h1m1 0h2m1 0h1m4 0h3m1 0h1m3 0h2M0 36.5h7m2 0h1m3 0h1m2 0h1m5 0h1m1 0h3m3 0h2m1 0h4"/>
</g>
  <text x="170" y="430" fill="#D3A16A" font-family="Arial, sans-serif" font-size="11" text-anchor="middle">cafeslodziak-rzeszow.com/menu</text>
  <rect y="452" width="340" height="68" fill="#FFF4E8"/>
  <text x="170" y="478" fill="#2F0E09" font-family="Arial, sans-serif" font-size="13" font-weight="600" text-anchor="middle">ul. Kwiatkowskiego 38, Rzeszów</text>
  <text x="170" y="500" fill="#2F0E09" font-family="Arial, sans-serif" font-size="13" text-anchor="middle">+48 530 599 994</text>
</svg>